<?xml version="1.0" encoding="UTF-8"?>
<!-- Generator: Adobe Illustrator 26.1.0, SVG Export Plug-In . SVG Version: 6.00 Build 0)  -->
<svg xmlns="http://www.w3.org/2000/svg" xmlns:xlink="http://www.w3.org/1999/xlink" version="1.1" id="Layer_1" x="0px" y="0px" viewBox="0 0 249 45" style="enable-background:new 0 0 249 45;" xml:space="preserve">
<style type="text/css">
	.st0{fill:#FFFFFF;}
</style>
<g>
	<rect x="197.45872" y="12.062" class="st0" width="10.14908" height="32.56369"></rect>
	<path class="st0" d="M63.47233,37.70136c-1.60452-0.00819-3.21059,0.03105-4.81345-0.03598   c-1.99579-0.08174-2.94042-1.12298-2.94042-3.11563c-0.00166-4.88591-0.00166-9.77187,0-14.65784   c0-0.2599,0.02289-0.51979,0.03764-0.86143c1.21645,0,2.38707,0.02452,3.55602-0.00653   c1.51444-0.03924,2.9519-0.34982,3.88023-1.69186c1.09364-1.58399,1.22627-3.39844,1.19351-5.33879h-8.71163V7.12866h-9.95425   v0.89413c0,8.97255-0.00981,17.94348,0.01474,26.91436c0.00161,0.97753,0.08841,1.98119,0.32255,2.92768   c0.91193,3.70245,3.58873,5.52668,7.09404,6.35058c3.24007,0.76009,6.54395,0.43805,9.82654,0.47895   c0.46827,0.00487,0.93814,0,1.41623,0v-6.99302C64.04858,37.70136,63.76045,37.70302,63.47233,37.70136z"></path>
	<path class="st0" d="M79.46134,0H69.22713v44.67799c0.28979,0,0.55008,0,0.81043,0c2.83727,0,5.67454-0.02613,8.51186,0.01799   c0.75473,0.01311,0.92828-0.21906,0.92667-0.94157c-0.01968-14.2933-0.01473-28.58497-0.01473-42.87666V0H79.46134z"></path>
	<path class="st0" d="M162.02937,13.44654c-2.4231-1.08867-4.98532-1.52676-7.6245-1.59213   c-3.74271-0.09154-7.48535-0.15696-11.19037,0.50019c-1.26723,0.22392-2.51151,0.58194-3.78523,0.88434   c-0.02293-0.39394-0.04584-0.76009-0.07205-1.21618c-2.43619,0.0327-4.84288-0.01959-7.13988,0.81731   c-1.81569,0.66202-2.43291,1.63303-2.43291,3.58971c0,9.08041,0,18.15921,0,27.23967v0.96603h10.26698v-0.98075   c0-6.78376,0.08348-13.56917-0.05731-20.34966c-0.03603-1.7213,0.6156-2.42256,2.0367-3.0159   c3.45941-1.44502,7.06621-1.65262,10.70576-1.30284c3.67059,0.35309,5.64343,1.88639,5.53868,6.39961   c-0.14079,6.13811-0.02129,12.2827-0.05238,18.42569c-0.00328,0.72417,0.21284,0.89413,0.90698,0.88273   c2.43452-0.0409,4.86909-0.01638,7.30528-0.01638h2.01701c0.03276-0.2599,0.077-0.43805,0.07533-0.61786   c-0.01474-7.02246,0.09007-14.04811-0.09988-21.06564C168.30975,18.60546,166.15349,15.29861,162.02937,13.44654z"></path>
	<path class="st0" d="M187.54866,19.02397c1.39328-0.03763,2.74071-0.28773,3.68207-1.44016   c1.31635-1.60845,1.33763-3.55699,1.43752-5.55286h-8.74112v-4.8827h-9.93135c-0.01802,0.19287-0.03931,0.32531-0.03931,0.45609   c-0.0016,9.37301-0.01308,18.74608,0.00987,28.12075c0.00327,1.42377,0.34869,2.79685,1.03958,4.06372   c1.56194,2.85894,4.17982,4.20103,7.2316,4.5508c2.88312,0.33024,5.81212,0.26321,8.71983,0.36289   c0.57463,0.01965,1.14932,0.00326,1.70595,0.00326v-7.00441c-0.35036,0-0.64015,0.00166-0.92993,0   c-1.60612-0.00653-3.2122,0.02944-4.81505-0.03431c-2.01376-0.08175-2.96498-1.11158-2.96664-3.09764   c-0.00327-4.88596-0.0016-9.77353-0.0016-14.66111v-0.8778C185.20905,19.03049,186.37965,19.05501,187.54866,19.02397z"></path>
	<path class="st0" d="M197.63388,2.07927c-1.01996,1.27828-1.03963,2.91617-0.00327,4.19118   c1.25903,1.54802,2.98953,2.05148,4.90346,2.10544c1.64049,0.00653,3.19257-0.51165,4.31241-1.4385   c1.53574-1.27174,1.81898-3.28398,0.67453-4.77152C205.33209-0.67513,199.86703-0.72417,197.63388,2.07927z"></path>
	<path class="st0" d="M248.85248,36.92488c-2.06125,0.26648-4.11591,0.57214-6.1821,0.78793   c-3.83926,0.40374-7.68347,0.50999-11.49979-0.21418c-2.34123-0.44298-4.54982-1.23904-6.24924-3.00445   c-1.99577-2.07273-2.46565-4.65053-2.3232-7.40493c0.1113-2.18879,0.88731-4.11929,2.67679-5.40415   c1.16734-0.84018,2.52298-1.53325,3.89658-1.95009c4.26663-1.29466,8.65759-1.10831,13.03879-0.75522   c1.34744,0.10953,2.68994,0.2926,4.08815,0.44624v-6.93086c-0.73022-0.10134-1.43912-0.22718-2.15294-0.29587   c-4.28952-0.41358-8.58559-0.53943-12.88818-0.18634c-3.31369,0.27135-6.5619,0.83691-9.65463,2.09559   c-3.61494,1.46954-6.52101,3.72862-8.12547,7.40493c-1.14279,2.61709-1.30325,5.37636-1.10349,8.16342   c0.17676,2.44376,0.82512,4.77312,2.12178,6.88675c2.04164,3.32975,5.10156,5.34853,8.72476,6.53526   c6.66672,2.18066,13.50046,2.34248,20.35381,1.20804C247.71135,43.62369,249.55977,40.83171,248.85248,36.92488z"></path>
	<path class="st0" d="M121.38882,14.70516c-1.02988-0.64403-2.16607-1.18674-3.32521-1.53817   c-3.65752-1.10665-7.42313-1.4499-11.23784-1.36655c-3.94081,0.085-7.83739,0.47568-11.6144,1.66081   c-3.21712,1.01185-6.12479,2.5451-8.26304,5.23901c-2.42305,3.05026-3.02395,6.60887-2.84708,10.3947   c0.2521,5.36164,2.5344,9.57574,7.21188,12.25493c5.87602,3.36567,12.2906,4.09964,18.91808,3.24801   c1.51439-0.19287,2.98795-0.70452,4.5138-1.07887c0.02783,0.33671,0.05727,0.6996,0.08514,1.05436   c1.50619,0.2501,6.11825-0.13731,7.51646-0.85822c1.35232-0.69634,2.03177-1.68693,2.02683-3.23329   c-0.02616-6.75924-0.02289-13.51687-0.00648-20.27611C124.37342,17.81427,123.38783,15.95405,121.38882,14.70516z    M113.40243,36.4476c-2.72271,1.37308-5.6353,1.69186-8.58553,1.28641c-1.85494-0.25497-3.74432-0.69473-5.46175-1.42046   c-3.09928-1.30938-4.63169-3.85939-4.94603-7.18755c-0.24229-2.57619,0.14572-4.95459,1.98592-6.91288   c1.49809-1.59545,3.42837-2.42095,5.52399-2.87865c3.46107-0.75516,6.93684-0.83204,10.41598-0.11113   c0.2832,0.05883,0.55335,0.18468,0.82679,0.28441c0.65977,0.2387,0.93321,0.68001,0.92174,1.40745   c-0.03437,2.40292-0.01314,4.80748-0.01314,7.2104c0,2.40452-0.01962,4.8091,0.0148,7.21201   C114.09335,35.9049,113.89525,36.19911,113.40243,36.4476z"></path>
	<path class="st0" d="M40.29588,20.03742c-0.00161-0.3449-0.01962-0.69473-0.07533-1.03471   c-0.43218-2.65146-2.20531-4.18144-4.50397-5.20635c-2.96986-1.32571-6.15589-1.76873-9.35666-1.89945   c-2.63428-0.10953-5.28819-0.03598-7.9176,0.16017c-3.39068,0.25171-6.70603,0.95789-9.83147,2.36534   c-3.82941,1.72457-6.67981,4.38577-7.93063,8.49526c-0.74004,2.4323-0.80223,4.92189-0.537,7.44417   c0.44854,4.25007,2.31828,7.74983,5.82686,10.1429c6.10678,4.16671,13.00763,4.94319,20.16879,4.10135   c1.51776-0.17981,2.99285-0.70457,4.50891-1.0756c0.02294,0.31385,0.0475,0.67835,0.07533,1.07395   c0.91846,0,1.74198,0.02125,2.56549-0.00493c1.68633-0.05556,3.36451-0.19287,4.93622-0.87449   c1.3818-0.59993,2.09075-1.61665,2.08581-3.18104C40.2828,33.70793,40.29915,26.87348,40.29588,20.03742z M29.3822,36.4263   c-1.8713,0.94161-3.85895,1.37473-5.9365,1.43196c-2.50496,0.06863-4.95262-0.25171-7.30693-1.13931   c-3.71976-1.40252-5.78756-4.34327-5.8661-8.32364c-0.08519-4.35467,1.75507-7.12705,5.90374-8.55736   c3.94902-1.36168,8.01588-1.42537,12.08922-0.60806c1.5308,0.30732,1.77474,0.70126,1.77474,2.23616v6.72498   c0,2.37674-0.01962,4.75187,0.01474,7.127C30.06332,35.88033,29.87664,36.17626,29.3822,36.4263z"></path>
</g>
</svg>
